<svg xmlns="http://www.w3.org/2000/svg" width="26" height="26" viewBox="0 0 26 26" fill="none">
<path d="M5 1L1 5.8V22.6C1 23.2365 1.28095 23.847 1.78105 24.2971C2.28115 24.7471 2.95942 25 3.66667 25H22.3333C23.0406 25 23.7189 24.7471 24.219 24.2971C24.719 23.847 25 23.2365 25 22.6V5.8L21 1H5Z" stroke="white" stroke-width="1.5" stroke-linecap="round" stroke-linejoin="round"/>
<path d="M1 5.80078H25" stroke="white" stroke-width="1.5" stroke-linecap="round" stroke-linejoin="round"/>
<path d="M18.3346 10.5996C18.3346 11.8726 17.7727 13.0935 16.7725 13.9937C15.7723 14.8939 14.4158 15.3996 13.0013 15.3996C11.5868 15.3996 10.2303 14.8939 9.23007 13.9937C8.22987 13.0935 7.66797 11.8726 7.66797 10.5996" stroke="white" stroke-width="1.5" stroke-linecap="round" stroke-linejoin="round"/>
</svg>