<svg width="35" height="37" viewbox="0 0 35 37" fill="none" xmlns="http://www.w3.org/2000/svg">
                <path d="M30.0586 14.0693V12.6468C30.0586 9.24223 28.8538 6.07857 26.6695 3.73109C24.4309 1.32143 21.3527 0 17.9947 0H16.821C13.463 0 10.3849 1.32143 8.14622 3.73109C5.96197 6.07857 4.75714 9.24223 4.75714 12.6468V14.0693C2.10651 14.2481 0 16.4557 0 19.1529V21.3761C0 24.1821 2.28529 26.4674 5.09139 26.4674H7.95966C8.47269 26.4674 8.89244 26.0477 8.89244 25.5347V14.9866C8.89244 14.4735 8.47269 14.0538 7.95966 14.0538H6.62269V12.6468C6.62269 6.49832 11.0067 1.86555 16.8132 1.86555H17.987C23.8013 1.86555 28.1775 6.49832 28.1775 12.6468V14.0538H26.8405C26.3275 14.0538 25.9078 14.4735 25.9078 14.9866V25.5269C25.9078 26.0399 26.3275 26.4597 26.8405 26.4597H28.1464C27.7655 31.3256 24.4153 32.4527 22.8607 32.7092C22.4332 31.3956 21.1973 30.4473 19.7437 30.4473H17.4118C15.6084 30.4473 14.1393 31.9164 14.1393 33.7197C14.1393 35.5231 15.6084 37 17.4118 37H19.7515C21.2595 37 22.5265 35.9739 22.9074 34.5903C23.6691 34.4815 24.8739 34.2095 26.071 33.5099C27.7578 32.5227 29.7555 30.5095 30.0197 26.4519C32.6859 26.2887 34.8002 24.0733 34.8002 21.3683V19.1452C34.808 16.4557 32.7092 14.2403 30.0586 14.0693ZM7.04244 24.5941H5.10693C3.32689 24.5941 1.88109 23.1483 1.88109 21.3683V19.1452C1.88109 17.3651 3.32689 15.9193 5.10693 15.9193H7.04244V24.5941ZM19.7515 35.1345H17.4118C16.6345 35.1345 16.0048 34.5048 16.0048 33.7275C16.0048 32.9502 16.6345 32.3206 17.4118 32.3206H19.7515C20.5288 32.3206 21.1584 32.9502 21.1584 33.7275C21.1584 34.5048 20.5288 35.1345 19.7515 35.1345ZM32.9424 21.3683C32.9424 23.1483 31.4966 24.5941 29.7166 24.5941H27.7811V15.9193H29.7166C31.4966 15.9193 32.9424 17.3651 32.9424 19.1452V21.3683Z" fill="black"></path>
              </svg>