 <svg width="39" height="38" viewbox="0 0 39 38" fill="none" xmlns="http://www.w3.org/2000/svg">
                <g clip-path="url(#clip0)">
                  <path d="M33.7601 6.67776C30.3819 3.38616 25.8883 1.57227 21.1139 1.57227C16.2512 1.57227 11.7014 3.44089 8.30713 6.83414C7.93802 7.20161 7.94604 7.79581 8.32318 8.16329C8.70032 8.52294 9.31017 8.51512 9.68731 8.14765C12.7205 5.12188 16.7727 3.45653 21.1139 3.45653C29.9165 3.44871 37.0742 10.4228 37.0742 18.9998C37.0742 27.5767 29.9165 34.5508 21.1139 34.5508C12.3113 34.5508 5.15359 27.5767 5.15359 18.9998V18.8043L6.7424 20.3524C6.92696 20.5322 7.17571 20.626 7.42446 20.626C7.67322 20.626 7.91395 20.5322 8.10653 20.3524C8.48367 19.9849 8.48367 19.3907 8.10653 19.0232L4.88077 15.8724C4.50363 15.5049 3.89378 15.5049 3.51664 15.8724L0.282856 19.0232C-0.0942853 19.3907 -0.0942853 19.9849 0.282856 20.3524C0.467414 20.5322 0.716167 20.626 0.96492 20.626C1.21367 20.626 1.4544 20.5322 1.64698 20.3524L3.23579 18.8043V18.9998C3.23579 23.6518 5.09742 28.0302 8.47565 31.3218C11.8539 34.6134 16.3475 36.4273 21.1219 36.4273C25.8964 36.4273 30.39 34.6134 33.7682 31.3218C37.1464 28.0302 39 23.6518 39 18.9998C39 14.3477 37.1384 9.96937 33.7601 6.67776Z" fill="black"></path>
                  <path d="M21.1143 8.86719C17.9848 8.86719 15.4411 11.3457 15.4411 14.3949V17.061H13.6758C13.1462 17.061 12.7129 17.4832 12.7129 17.9992V27.358C12.7129 27.874 13.1462 28.2962 13.6758 28.2962H28.5608C29.0904 28.2962 29.5238 27.874 29.5238 27.358V18.007C29.5238 17.491 29.0904 17.0688 28.5608 17.0688H26.7955V14.4027C26.7955 11.3535 24.2438 8.86719 21.1143 8.86719ZM17.367 14.4027C17.367 12.3855 19.0521 10.7515 21.1143 10.7515C23.1766 10.7515 24.8617 12.3933 24.8617 14.4027V17.0688H17.367V14.4027ZM27.5979 26.4198H14.6387V18.9375H27.5979V26.4198Z" fill="black"></path>
                </g>
                <defs><clippath id="clip0"><rect width="39" height="38" fill="white"></rect></clippath></defs>
              </svg>