              <svg width="37" height="27" viewbox="0 0 37 27" fill="none" xmlns="http://www.w3.org/2000/svg">
                <path d="M34.9845 6.67016C33.7519 5.33682 32 4.60814 30.0543 4.60814H24.9767V1.75543C24.9767 1.2438 24.5581 0.825195 24.0465 0.825195H0.930233C0.418605 0.825195 0 1.2438 0 1.75543V22.2128C0 22.7244 0.418605 23.143 0.930233 23.143H4.63566C4.93798 24.864 6.43411 26.174 8.24031 26.174C10.0465 26.174 11.5426 24.864 11.845 23.143H24.0465H26.0853C26.3876 24.864 27.8837 26.174 29.6899 26.174C31.4961 26.174 32.9922 24.864 33.2946 23.143H36.0698C36.5814 23.143 37 22.7244 37 22.2128V12.6004C36.9922 10.143 36.3023 8.08876 34.9845 6.67016ZM1.86047 2.68566H23.1163V5.53837V21.2903H11.6822C11.1783 19.8795 9.82171 18.864 8.24031 18.864C6.65892 18.864 5.30233 19.8795 4.79845 21.2903H1.86047V2.68566ZM8.24031 24.3136C7.24806 24.3136 6.44186 23.5074 6.44186 22.5151C6.44186 21.5229 7.24806 20.7167 8.24031 20.7167C9.23256 20.7167 10.0388 21.5229 10.0388 22.5151C10.0388 23.5074 9.23256 24.3136 8.24031 24.3136ZM29.6899 24.3136C28.6977 24.3136 27.8915 23.5074 27.8915 22.5151C27.8915 21.5229 28.6977 20.7167 29.6899 20.7167C30.6822 20.7167 31.4884 21.5229 31.4884 22.5151C31.4884 23.5074 30.6822 24.3136 29.6899 24.3136ZM35.1318 21.2826H33.1318C32.6279 19.8717 31.2713 18.8562 29.6899 18.8562C28.1085 18.8562 26.7519 19.8717 26.2481 21.2826H24.9845V6.46861H30.062C33.1938 6.46861 35.1395 8.81744 35.1395 12.6004V21.2826H35.1318Z" fill="black"></path>
              </svg>