 <svg width="31" height="37" viewbox="0 0 31 37" fill="none" xmlns="http://www.w3.org/2000/svg">
                <path d="M9.59532 15.0855C9.59532 14.5814 9.18285 14.1689 8.67872 14.1689H1.33066C0.826531 14.1689 0.414062 14.5814 0.414062 15.0855C0.414062 15.5897 0.826531 16.0021 1.33066 16.0021H8.67872C9.18285 16.0021 9.59532 15.5897 9.59532 15.0855Z" fill="black"></path>
                <path d="M29.669 14.1689H22.3209C21.8168 14.1689 21.4043 14.5814 21.4043 15.0855C21.4043 15.5897 21.8168 16.0021 22.3209 16.0021H29.669C30.1731 16.0021 30.5856 15.5897 30.5856 15.0855C30.5856 14.5814 30.1807 14.1689 29.669 14.1689Z" fill="black"></path>
                <path d="M15.4996 9.18126C16.0037 9.18126 16.4162 8.76879 16.4162 8.26466V0.916598C16.4162 0.412469 16.0037 0 15.4996 0C14.9955 0 14.583 0.412469 14.583 0.916598V8.26466C14.583 8.76879 14.9955 9.18126 15.4996 9.18126Z" fill="black"></path>
                <path d="M20.3199 11.1823C20.5567 11.1823 20.7858 11.0906 20.9691 10.915L26.1708 5.71327C26.5298 5.35427 26.5298 4.77376 26.1708 4.41476C25.8118 4.05576 25.2313 4.05576 24.8723 4.41476L19.6706 9.61645C19.3116 9.97545 19.3116 10.556 19.6706 10.915C19.8539 11.0906 20.0907 11.1823 20.3199 11.1823Z" fill="black"></path>
                <path d="M10.0305 10.915C10.2062 11.0906 10.443 11.1823 10.6798 11.1823C10.9166 11.1823 11.1457 11.0906 11.329 10.915C11.688 10.556 11.688 9.97545 11.329 9.61645L6.12733 4.41476C5.76833 4.05576 5.18782 4.05576 4.82882 4.41476C4.46982 4.77376 4.46982 5.35427 4.82882 5.71327L10.0305 10.915Z" fill="black"></path>
                <path d="M26.8398 21.178C26.1447 20.5822 25.2663 20.2537 24.3726 20.2537H23.5401H20.5458H19.1251V16.5491C19.1251 14.777 18.5981 13.4862 17.5516 12.7147C15.9017 11.5078 13.6637 12.1877 13.5644 12.2182C13.1825 12.3404 12.9228 12.6918 12.9228 13.089V17.5574C12.9228 18.917 12.2735 20.0704 10.9827 20.9946C10.005 21.6974 9.00434 22.0182 8.87448 22.0564L8.78282 22.0793C8.4391 21.6897 7.93497 21.4453 7.36974 21.4453H3.88666C2.84785 21.4453 2 22.2932 2 23.332V34.7589C2 35.7977 2.84785 36.6456 3.88666 36.6456H7.38501C7.84331 36.6456 8.27106 36.4775 8.59187 36.2025C9.29459 36.89 10.2494 37.3101 11.2806 37.3101H14.756H15.115H22.2263C23.3262 37.3101 24.2962 37.0427 25.0372 36.5463C25.9843 35.9046 26.5725 34.8887 26.7405 33.5902L28.1536 24.8062C28.3751 23.4465 27.871 22.0564 26.8398 21.178ZM7.43848 34.7589C7.43848 34.7894 7.41557 34.8124 7.38501 34.8124H3.88666C3.85611 34.8124 3.8332 34.7894 3.8332 34.7589V23.332C3.8332 23.3014 3.85611 23.2785 3.88666 23.2785H7.38501C7.41557 23.2785 7.43848 23.3014 7.43848 23.332V34.7589ZM26.3433 24.5235L24.9302 33.3229C24.9302 33.3305 24.9302 33.3458 24.9226 33.3611C24.8615 33.8881 24.6629 35.4845 22.2263 35.4845H15.115H14.756H11.2806C10.3028 35.4845 9.44736 34.7512 9.29459 33.7812C9.28695 33.743 9.27931 33.7048 9.27168 33.6742V23.8514L9.32515 23.8361C9.34042 23.8361 9.34806 23.8285 9.36334 23.8285C9.41681 23.8132 10.7153 23.4465 12.0062 22.5223C13.8012 21.2467 14.756 19.5281 14.756 17.5574V13.8452C15.2601 13.7917 15.9552 13.8146 16.467 14.1889C17.0169 14.5937 17.2919 15.3881 17.2919 16.5415V21.1627C17.2919 21.6668 17.7044 22.0793 18.2085 22.0793H20.5458H23.5401H24.3726C24.8309 22.0793 25.2816 22.255 25.6482 22.5605C26.1982 23.0341 26.4579 23.7826 26.3433 24.5235Z" fill="black"></path>
              </svg>